<?xml version="1.0" encoding="utf-8"?>
<!-- Generator: Adobe Illustrator 23.0.1, SVG Export Plug-In . SVG Version: 6.00 Build 0)  -->
<svg version="1.1" id="Layer_1" xmlns="http://www.w3.org/2000/svg" xmlns:xlink="http://www.w3.org/1999/xlink" x="0px" y="0px"
	 viewBox="0 0 558.2 271.2" style="enable-background:new 0 0 558.2 271.2;" xml:space="preserve">
<style type="text/css">
	.st0{fill:#CEB57B;}
	.st1{fill:#A79262;}
	.st2{fill:#FFFFFF;}
</style>
<g>
	<g>
		<g>
			<path class="st0" d="M160.1,186.9v20.8c0,6.5-4.2,12.3-10.4,14.4l-5.8,1.9l-48.5-15.9L160.1,186.9z"/>
			<g>
				<path class="st0" d="M97.2,239.9l-15.4,5L1.9,271.1v-20.8c0-6.5,4.2-12.3,10.4-14.4l21-6.9h0l15.4-5L97.2,239.9z"/>
				<path class="st0" d="M160.1,250.4v20.8l-80.2-26.3L31.4,229h0l-21-6.9c-6.2-2-10.4-7.8-10.4-14.4V187l149.7,49
					C155.9,238,160.1,243.8,160.1,250.4"/>
			</g>
		</g>
		<path class="st0" d="M146.9,111.8c0,8.3-1.6,16.6-4.8,24.4c-3.2,7.8-7.9,15.1-14.2,21.3l-45.8,45.8l-45.8-45.8
			c-6.3-6.2-11-13.5-14.2-21.3c-3.2-7.8-4.8-16.1-4.8-24.4c0-6.5,1-13.1,3-19.4c0.8-2.7,1.8-5.3,3.1-7.9c1.6-3.5,3.6-7,5.9-10.2v0
			l24.7-34.7L82.3,0l12.3,17.4c3.7,5.2,3.7,12.3,0,17.5L72,66.6L60.4,82.8l-6.4,9c-0.1,0.2-0.3,0.4-0.4,0.6c-1.9,2.9-3.4,5.9-4.4,9
			c-0.1,0.5-0.3,1-0.4,1.4c-0.8,2.9-1.1,5.9-1.1,8.9c0,4.4,0.8,8.9,2.5,13c1.7,4.1,4.2,8,7.6,11.4l24.4,24.4l24.4-24.4
			c3.4-3.4,5.9-7.2,7.6-11.4c1.7-4.1,2.6-8.6,2.6-13c0-3.5-0.5-7-1.6-10.3c-1.1-3.3-2.6-6.5-4.7-9.5l-0.1-0.2l-2.7-3.8l-19.9,28.7
			L75.2,99.2c-3.7-5.2-3.7-12.1-0.1-17.4l32.1-46.4l24.1,33.9l2,2.8l1.5,2.2l0,0c4,5.6,7,11.8,9,18.1
			C145.9,98.7,146.9,105.3,146.9,111.8"/>
		<polygon class="st1" points="88.1,154.7 99.7,178.3 82.1,160.7 		"/>
	</g>
	<g>
		<path class="st2" d="M260.9,204.9c2.9,0,5.5,0.9,7.9,2.7c2.4,1.8,3.7,3.9,4,6.3h11.5c-0.7-5.7-3.3-10.3-7.6-13.6
			c-4.4-3.4-9.9-5-16.5-5c-8.4,0-15,2.6-19.9,7.9c-4.9,5.3-7.3,12.4-7.3,21.4c0,8.8,2.3,15.8,7.1,21c4.7,5.1,11,7.7,19,7.7h0
			c6.6,0,11.8-2.6,15.7-7.7l0.7-0.9l1.1,7.1h7.7v-29.7h-23.1v9.5h13v0.1c-0.6,2.6-1.6,4.8-3,6.8c-2.5,3.4-5.9,5.1-10.3,5.1h0
			c-5.2,0-9.2-1.6-11.9-4.9c-2.7-3.3-4.1-8-4.1-14.3c0-6.1,1.4-10.9,4.2-14.4C252,206.7,255.9,204.9,260.9,204.9"/>
		<polygon class="st2" points="324.3,217.5 302.8,217.5 302.8,196.9 291.3,196.9 291.3,251.9 302.8,251.9 302.8,227 324.3,227 
			324.3,251.9 335.8,251.9 335.8,196.9 324.3,196.9 		"/>
		<polygon class="st2" points="424.2,240.5 414.1,196.9 397.3,196.9 397.3,251.9 408.1,251.9 408.1,204.6 418.4,251.9 429.6,251.9 
			440,205.7 440,251.9 450.7,251.9 450.7,196.9 434.1,196.9 		"/>
		<path class="st2" d="M538.7,197.9h-13.3l-14,39.7v0l-1.3,3.1l-6-9.7l0,0l-0.1-0.1c-0.8-1.8-2.1-3.3-3.8-4.4
			c-0.6-0.3-1.2-0.6-1.9-0.9c1.2-0.5,2.3-1,3.2-1.6c3.6-2.5,5.4-6.4,5.4-11.6c0-4.6-1.6-8.3-4.8-11.1c-3.2-2.8-7.4-4.2-12.7-4.2
			h-27.7v55h11.5v-21.7h11.4c1.8,0,3.3,0.2,4.5,0.5h0c0,0,0,0,0,0h0l4.7,6.2l7.2,9.6l4.1,5.4h0l0.8,1h0l0,0h11.8l3.7-11.2l3.2-9.5
			l7.3-22.1l7.4,22.1l3.1,9.5l3.7,11.2h12.2L538.7,197.9z M486.6,221h-13.3v-14.6H487c2.8,0,4.9,0.6,6.3,1.8c1.4,1.2,2.1,3,2.1,5.4
			c0,2.4-0.8,4.3-2.2,5.5C491.7,220.4,489.5,221,486.6,221"/>
		<polygon class="st2" points="359.5,196.9 340,251.9 351.8,251.9 355.5,240.8 358.7,231.3 366,209.2 366.1,209.4 373.3,231.3 
			376.4,240.8 380.1,251.9 392.3,251.9 372.8,196.9 		"/>
		<path class="st2" d="M249.7,155.7h9.8c4.5,0,8.4-1.7,11.6-5c3.2-3.2,4.8-7.1,4.8-11.7V99.1h-26.2c-4.6,0-8.4,1.7-11.6,5.1
			c-3.3,3.3-4.9,7.2-4.9,11.7V139c0,4.7,1.6,8.6,4.7,11.8C241.2,154.1,245.1,155.7,249.7,155.7 M249,116.9c0-4.6,1.8-6.9,5.5-6.9
			h5.7v27.9c0,4.6-1.8,6.9-5.5,6.9c-3.8,0-5.7-2.3-5.7-6.9V116.9z"/>
		<path class="st2" d="M473.4,165c4.4,0,8.3-1.6,11.6-4.9c1.7-1.8,2.9-3.7,3.7-5.8c2.1,0.9,4.3,1.3,6.6,1.3h1v0h10.2v0h51.7v-10.9
			h-27v-27.7c0-1.8,0.5-3.5,1.5-4.9c0.5-0.7,1.1-1.2,1.8-1.6c0.7-0.4,1.5-0.6,2.4-0.6c1.7,0,3.2,0.8,4.4,2.3
			c0.8,1.4,1.3,2.9,1.3,4.8v4.2h15.7v-5.5c0-4.6-1.6-8.5-4.8-11.7c-3.2-3.4-7.1-5.1-11.6-5.1h-10c-4.5,0-8.4,1.6-11.7,4.9
			c-3.1,3.3-4.7,7.2-4.7,11.8v29h-7.1v0h-11.1c-2.6,0-4.5-0.5-5.7-1.5c-1.2-1-1.8-2.8-1.8-5.4v-22.3c0-4.4-1.6-8.3-4.8-11.7
			c-3.3-3.3-7.1-4.9-11.6-4.9h-10c-4.5,0-8.3,1.6-11.5,4.9c-3.2,3.2-4.8,7.1-4.8,11.7v22.3c0,2.6-0.6,4.4-1.8,5.4
			c-1.2,1-2.9,1.5-5.2,1.5H431h-2.1h-7.8H419h-7.8h-2.1h-7.8h-2.1h-7.8h-2.1h-7.8h-2.1h-7.8h-2.1h-7.8h-2.1h-7.8h-2.1H342h-2.1h-7.8
			H330H322h-5.8V99.1h-15.7v62.4c0,4.7-1.8,7.1-5.3,7.1H290v10.9h9.8c4.5,0,8.4-1.6,11.6-4.9c3.2-3.2,4.8-7.1,4.8-11.7v-7.2h3.9v0
			h9.9h2.1h7.8h2.1h7.8h2.1h7.8h2.1h7.8h2.1h7.8h2.1h7.8h2.1h7.8h2.1h7.8h2.1h7.8h2.1h7.8h2.1h9.9v0h0.8c2.2,0,4.3-0.5,6.6-1.3
			c0.7,2.1,1.9,4,3.7,5.8c3.2,3.3,7,4.9,11.5,4.9H473.4z M462.8,117.1c0-4.7,1.9-7.1,5.6-7.1c3.7,0,5.6,2.4,5.6,7.1v30
			c0,4.8-1.9,7.2-5.6,7.2c-3.7,0-5.6-2.4-5.6-7.2V117.1z"/>
		<polygon class="st2" points="548.7,57.3 523.8,70.7 523.8,74.2 548.7,60.9 		"/>
		<path class="st2" d="M529.9,81.9v7.8h7.9c3.3,0,6-2.7,6-6v-7.8h-7.9C532.6,75.9,529.9,78.6,529.9,81.9"/>
		<path class="st2" d="M269.1,83.7v-7.8h-7.9c-3.3,0-6,2.7-6,6v7.8h7.9C266.4,89.7,269.1,87,269.1,83.7"/>
		<path class="st2" d="M253,83.7v-7.8h-7.9c-3.3,0-6,2.7-6,6v7.8h7.9C250.3,89.7,253,87,253,83.7"/>
	</g>
</g>
</svg>
