<svg version="1.2" baseProfile="tiny-ps" xmlns="http://www.w3.org/2000/svg" viewBox="0 0 30 31" width="30" height="31">
	<title>Shape 49</title>
	<style>
		tspan { white-space:pre }
		.shp0 { fill: #cfb579 } 
	</style>
	<path id="Shape 49" class="shp0" d="M11.75 17.45C11.75 17.1 11.47 16.81 11.13 16.81L8.94 16.81C8.59 16.81 8.31 17.1 8.31 17.45L8.31 19.66C8.31 20.02 8.59 20.3 8.94 20.3L11.13 20.3C11.47 20.3 11.75 20.02 11.75 19.66L11.75 17.45ZM11.75 17.45M17.22 17.45C17.22 17.1 16.94 16.81 16.59 16.81L14.41 16.81C14.06 16.81 13.78 17.1 13.78 17.45L13.78 19.66C13.78 20.02 14.06 20.3 14.41 20.3L16.59 20.3C16.94 20.3 17.22 20.02 17.22 19.66L17.22 17.45ZM17.22 17.45M22.69 17.45C22.69 17.1 22.41 16.81 22.06 16.81L19.87 16.81C19.53 16.81 19.25 17.1 19.25 17.45L19.25 19.66C19.25 20.02 19.53 20.3 19.87 20.3L22.06 20.3C22.41 20.3 22.69 20.02 22.69 19.66L22.69 17.45ZM22.69 17.45M11.75 22.99C11.75 22.64 11.47 22.36 11.13 22.36L8.94 22.36C8.59 22.36 8.31 22.64 8.31 22.99L8.31 25.21C8.31 25.56 8.59 25.84 8.94 25.84L11.13 25.84C11.47 25.84 11.75 25.56 11.75 25.21L11.75 22.99ZM11.75 22.99M17.22 22.99C17.22 22.64 16.94 22.36 16.59 22.36L14.41 22.36C14.06 22.36 13.78 22.64 13.78 22.99L13.78 25.21C13.78 25.56 14.06 25.84 14.41 25.84L16.59 25.84C16.94 25.84 17.22 25.56 17.22 25.21L17.22 22.99ZM17.22 22.99M22.69 22.99C22.69 22.64 22.41 22.36 22.06 22.36L19.87 22.36C19.53 22.36 19.25 22.64 19.25 22.99L19.25 25.21C19.25 25.56 19.53 25.84 19.87 25.84L22.06 25.84C22.41 25.84 22.69 25.56 22.69 25.21L22.69 22.99ZM22.69 22.99M26.6 5.12L26.6 8.5C26.6 10.04 25.37 11.27 23.86 11.27L22.14 11.27C20.63 11.27 19.39 10.04 19.39 8.5L19.39 5.11L11.61 5.11L11.61 8.5C11.61 10.04 10.37 11.27 8.86 11.27L7.14 11.27C5.63 11.27 4.4 10.04 4.4 8.5L4.4 5.12C3.08 5.16 2 6.26 2 7.63L2 27.47C2 28.86 3.11 30 4.47 30L26.52 30C27.89 30 29 28.86 29 27.47L29 7.63C29 6.26 27.92 5.16 26.6 5.12L26.6 5.12ZM25.8 26.24C25.8 26.84 25.32 27.32 24.73 27.32L6.23 27.32C5.64 27.32 5.16 26.84 5.16 26.24L5.16 15.99C5.16 15.39 5.64 14.9 6.23 14.9L24.73 14.9C25.32 14.9 25.8 15.39 25.8 15.99L25.8 26.24ZM25.8 26.24M7.13 9.45L8.84 9.45C9.36 9.45 9.78 9.03 9.78 8.5L9.78 2.95C9.78 2.43 9.36 2 8.84 2L7.13 2C6.61 2 6.19 2.43 6.19 2.95L6.19 8.5C6.19 9.03 6.61 9.45 7.13 9.45L7.13 9.45ZM7.13 9.45M22.12 9.45L23.82 9.45C24.34 9.45 24.76 9.03 24.76 8.5L24.76 2.95C24.76 2.43 24.34 2 23.82 2L22.12 2C21.6 2 21.18 2.43 21.18 2.95L21.18 8.5C21.18 9.03 21.6 9.45 22.12 9.45L22.12 9.45ZM22.12 9.45" />
</svg>