<svg version="1.2" baseProfile="tiny-ps" xmlns="http://www.w3.org/2000/svg" viewBox="0 0 40 37" width="40" height="37">
	<title>Shape 44</title>
	<style>
		tspan { white-space:pre }
		.shp0 { fill: #cfb579 } 
	</style>
	<path id="Shape 44" class="shp0" d="M4.97 6.43C4.97 6.42 4.97 6.41 4.97 6.4C4.97 6.39 4.97 6.39 4.97 6.39C4.97 6.4 4.97 6.41 4.97 6.43ZM36.49 8.02L8.11 8.02L7.69 3.35C7.62 2.58 6.97 2 6.2 2L3.17 2C2.35 2 1.68 2.66 1.68 3.48C1.68 4.3 2.35 4.96 3.17 4.96L4.84 4.96C4.84 4.96 4.84 4.96 4.84 4.97C4.84 4.98 4.84 4.98 4.84 4.99C4.84 4.99 4.84 4.99 4.84 4.99C4.84 5 4.84 5 4.84 5C4.85 5.01 4.85 5.01 4.85 5.02C4.85 5.02 4.85 5.02 4.85 5.02C4.85 5.03 4.85 5.04 4.85 5.04C4.85 5.05 4.85 5.06 4.85 5.06L4.85 5.07C4.85 5.07 4.85 5.07 4.85 5.08C4.85 5.09 4.85 5.1 4.85 5.12C4.86 5.12 4.86 5.13 4.86 5.13C4.86 5.14 4.86 5.14 4.86 5.14C4.86 5.16 4.86 5.18 4.86 5.19C4.86 5.2 4.86 5.21 4.86 5.22C4.86 5.24 4.87 5.25 4.87 5.26C4.87 5.27 4.87 5.28 4.87 5.28C4.87 5.29 4.87 5.3 4.87 5.32C4.87 5.33 4.87 5.34 4.88 5.35C4.88 5.36 4.88 5.38 4.88 5.39C4.88 5.4 4.88 5.41 4.88 5.43C4.88 5.44 4.88 5.45 4.89 5.47C4.89 5.46 4.89 5.46 4.88 5.46C4.89 5.47 4.89 5.48 4.89 5.49C4.89 5.5 4.89 5.51 4.89 5.51C4.89 5.53 4.89 5.54 4.89 5.56L4.89 5.56C4.9 5.59 4.9 5.62 4.9 5.64C4.9 5.65 4.9 5.65 4.9 5.65C4.9 5.67 4.91 5.68 4.91 5.7C4.91 5.7 4.91 5.7 4.91 5.7C4.91 5.7 4.91 5.7 4.91 5.71C4.91 5.74 4.91 5.77 4.92 5.81C4.92 5.81 4.92 5.81 4.92 5.82C4.92 5.82 4.92 5.82 4.92 5.83C4.92 5.84 4.92 5.85 4.92 5.87C4.92 5.87 4.92 5.86 4.92 5.86C4.92 5.87 4.92 5.88 4.92 5.88C4.92 5.88 4.92 5.89 4.92 5.89C4.93 5.9 4.93 5.91 4.93 5.92C4.93 5.94 4.93 5.96 4.93 5.98C4.93 5.98 4.93 5.98 4.93 5.99C4.93 5.99 4.93 5.99 4.93 6C4.94 6.02 4.94 6.04 4.94 6.06C4.94 6.09 4.94 6.12 4.95 6.14C4.95 6.15 4.95 6.15 4.95 6.16C4.95 6.17 4.95 6.19 4.95 6.21C4.95 6.2 4.95 6.19 4.95 6.18C4.95 6.21 4.96 6.23 4.96 6.26C4.96 6.26 4.96 6.26 4.96 6.27C4.96 6.3 4.96 6.32 4.97 6.35C4.97 6.35 4.97 6.36 4.97 6.37C4.97 6.38 4.97 6.39 4.97 6.4C4.97 6.41 4.97 6.43 4.97 6.44C4.98 6.45 4.98 6.46 4.98 6.47C4.98 6.49 4.98 6.5 4.98 6.52C4.98 6.53 4.98 6.54 4.98 6.55C4.98 6.56 4.99 6.57 4.99 6.57C4.99 6.59 4.99 6.6 4.99 6.61C4.99 6.64 4.99 6.66 5 6.68C5 6.7 5 6.71 5 6.72C5 6.73 5 6.74 5 6.75C5 6.77 5.01 6.79 5.01 6.81C5.01 6.82 5.01 6.83 5.01 6.84C5.01 6.85 5.01 6.86 5.01 6.88C5.01 6.88 5.01 6.89 5.02 6.89C5.02 6.89 5.02 6.9 5.02 6.9C5.02 6.91 5.02 6.92 5.02 6.93C5.02 6.95 5.02 6.97 5.02 6.99C5.02 7 5.03 7.01 5.03 7.02L5.03 7.03C5.03 7.04 5.03 7.06 5.03 7.08C5.03 7.08 5.03 7.09 5.03 7.09C5.03 7.1 5.03 7.1 5.03 7.11C5.04 7.12 5.04 7.14 5.04 7.15C5.04 7.16 5.04 7.16 5.04 7.16C5.04 7.17 5.04 7.17 5.04 7.17C5.04 7.19 5.04 7.21 5.05 7.23C5.05 7.23 5.05 7.23 5.05 7.23C5.05 7.25 5.05 7.26 5.05 7.27C5.05 7.28 5.05 7.29 5.05 7.29C5.05 7.3 5.05 7.31 5.05 7.31C5.05 7.33 5.06 7.35 5.06 7.38C5.06 7.38 5.06 7.39 5.06 7.4C5.06 7.4 5.06 7.41 5.06 7.41C5.06 7.41 5.06 7.41 5.06 7.42C5.06 7.43 5.06 7.44 5.07 7.45C5.07 7.46 5.07 7.46 5.07 7.46C5.3 10.04 5.75 14.99 6.55 23.93C6.68 25.3 7.42 26.78 8.7 27.79C6.39 30.72 8.5 35.04 12.26 35.04C15.38 35.04 17.58 31.95 16.51 29.03L24.67 29.03C23.6 31.95 25.79 35.04 28.92 35.04C31.41 35.04 33.44 33.03 33.44 30.55C33.44 28.08 31.41 26.07 28.92 26.07L12.27 26.07C11.14 26.07 10.15 25.39 9.72 24.4L33.55 23.01C34.2 22.97 34.75 22.52 34.91 21.89L37.93 9.86C38.17 8.92 37.46 8.02 36.49 8.02ZM28.92 29.03C29.76 29.03 30.45 29.71 30.45 30.55C30.45 31.4 29.76 32.08 28.92 32.08C28.07 32.08 27.38 31.4 27.38 30.55C27.38 29.71 28.07 29.03 28.92 29.03ZM12.26 29.03C13.11 29.03 13.8 29.71 13.8 30.55C13.8 31.4 13.11 32.08 12.26 32.08C11.41 32.08 10.72 31.4 10.72 30.55C10.72 29.71 11.41 29.03 12.26 29.03ZM21.48 22.74L19.58 20.86L18.3 19.58C17.86 19.15 17.53 18.65 17.31 18.11C17.09 17.57 16.98 17 16.98 16.42C16.98 15.97 17.05 15.52 17.19 15.08C17.24 14.9 17.31 14.72 17.4 14.54C17.51 14.3 17.65 14.06 17.81 13.84L17.81 13.83L19.53 11.44L19.86 10.98L21.49 8.71L22.34 9.91C22.57 10.22 22.6 10.64 22.42 10.98C22.4 11.02 22.37 11.07 22.34 11.11L20.77 13.3L19.97 14.42L19.52 15.04C19.51 15.06 19.5 15.07 19.49 15.09C19.36 15.28 19.26 15.49 19.19 15.71C19.18 15.74 19.17 15.78 19.16 15.81C19.11 16.01 19.08 16.22 19.08 16.42C19.08 16.73 19.14 17.04 19.26 17.32C19.37 17.61 19.55 17.88 19.78 18.11L21.48 19.79L21.9 19.38L23.17 18.11C23.41 17.88 23.58 17.61 23.7 17.32C23.82 17.04 23.88 16.73 23.88 16.42C23.88 16.18 23.84 15.94 23.77 15.71C23.69 15.48 23.59 15.26 23.44 15.05L23.43 15.04L23.24 14.78L21.86 16.76L21 15.55C20.74 15.19 20.74 14.71 20.99 14.35L23.22 11.15L24.9 13.49L25.04 13.68L25.14 13.83L25.15 13.84C25.42 14.23 25.63 14.65 25.77 15.08C25.91 15.52 25.98 15.97 25.98 16.42C25.98 17 25.87 17.57 25.64 18.11C25.42 18.65 25.09 19.15 24.66 19.58L23.61 20.62L21.48 22.74Z" />
</svg>