<svg version="1.2" baseProfile="tiny-ps" xmlns="http://www.w3.org/2000/svg" viewBox="0 0 30 28" width="30" height="28">
	<title>Shape 46</title>
	<style>
		tspan { white-space:pre }
		.shp0 { fill: #ffffff } 
	</style>
	<path id="Shape 46" class="shp0" d="M3.98 4.86C3.98 4.86 3.98 4.85 3.98 4.84C3.98 4.84 3.98 4.83 3.98 4.83C3.98 4.84 3.98 4.85 3.98 4.86ZM27.48 6.07L6.32 6.07L6.01 2.53C5.96 1.95 5.48 1.51 4.9 1.51L2.64 1.51C2.03 1.51 1.53 2.01 1.53 2.63C1.53 3.25 2.03 3.75 2.64 3.75L3.88 3.75C3.88 3.75 3.88 3.76 3.88 3.76C3.88 3.76 3.89 3.77 3.89 3.77C3.89 3.77 3.89 3.78 3.89 3.78C3.89 3.78 3.89 3.78 3.89 3.79C3.89 3.79 3.89 3.79 3.89 3.79C3.89 3.8 3.89 3.8 3.89 3.8C3.89 3.8 3.89 3.81 3.89 3.82C3.89 3.82 3.89 3.83 3.89 3.83L3.89 3.83C3.89 3.84 3.89 3.84 3.89 3.84C3.89 3.85 3.89 3.86 3.89 3.87C3.89 3.88 3.89 3.88 3.89 3.88C3.9 3.89 3.9 3.89 3.9 3.89C3.9 3.9 3.9 3.92 3.9 3.93C3.9 3.93 3.9 3.94 3.9 3.95C3.9 3.96 3.9 3.97 3.9 3.98C3.9 3.99 3.9 3.99 3.91 4C3.91 4 3.91 4.01 3.91 4.02C3.91 4.03 3.91 4.04 3.91 4.05C3.91 4.06 3.91 4.07 3.91 4.08C3.91 4.09 3.91 4.1 3.92 4.11C3.92 4.12 3.92 4.13 3.92 4.14C3.92 4.13 3.92 4.13 3.92 4.13C3.92 4.14 3.92 4.15 3.92 4.15C3.92 4.16 3.92 4.17 3.92 4.17C3.92 4.18 3.92 4.19 3.92 4.2L3.92 4.21C3.93 4.23 3.93 4.25 3.93 4.27C3.93 4.27 3.93 4.27 3.93 4.27C3.93 4.29 3.93 4.3 3.93 4.31C3.93 4.31 3.93 4.31 3.93 4.31C3.93 4.31 3.93 4.32 3.93 4.32C3.94 4.34 3.94 4.37 3.94 4.39C3.94 4.4 3.94 4.4 3.94 4.4C3.94 4.4 3.94 4.41 3.94 4.41C3.94 4.42 3.94 4.43 3.95 4.44C3.95 4.44 3.94 4.44 3.94 4.44C3.95 4.44 3.95 4.45 3.95 4.45C3.95 4.45 3.95 4.45 3.95 4.45C3.95 4.46 3.95 4.47 3.95 4.48C3.95 4.49 3.95 4.51 3.95 4.52C3.95 4.52 3.95 4.53 3.95 4.53C3.95 4.53 3.95 4.54 3.95 4.54C3.95 4.56 3.96 4.57 3.96 4.59C3.96 4.61 3.96 4.63 3.96 4.65C3.96 4.65 3.96 4.65 3.96 4.66C3.97 4.67 3.97 4.68 3.97 4.7C3.97 4.69 3.97 4.68 3.97 4.68C3.97 4.69 3.97 4.71 3.97 4.73C3.97 4.74 3.97 4.74 3.97 4.74C3.97 4.76 3.98 4.78 3.98 4.8C3.98 4.81 3.98 4.81 3.98 4.82C3.98 4.83 3.98 4.83 3.98 4.84C3.98 4.85 3.98 4.86 3.98 4.88C3.98 4.88 3.99 4.89 3.99 4.9C3.99 4.91 3.99 4.92 3.99 4.93C3.99 4.94 3.99 4.95 3.99 4.96C3.99 4.96 3.99 4.97 3.99 4.97C3.99 4.98 3.99 4.99 4 5C4 5.02 4 5.04 4 5.06C4 5.07 4 5.08 4 5.09C4 5.09 4 5.1 4 5.11C4.01 5.12 4.01 5.14 4.01 5.15C4.01 5.16 4.01 5.17 4.01 5.17C4.01 5.18 4.01 5.19 4.01 5.21C4.01 5.21 4.01 5.21 4.01 5.22C4.01 5.22 4.01 5.22 4.01 5.22C4.01 5.23 4.02 5.24 4.02 5.24C4.02 5.26 4.02 5.27 4.02 5.29C4.02 5.3 4.02 5.31 4.02 5.32L4.02 5.32C4.02 5.33 4.03 5.34 4.03 5.35C4.03 5.36 4.03 5.36 4.03 5.37C4.03 5.37 4.03 5.37 4.03 5.38C4.03 5.39 4.03 5.4 4.03 5.41C4.03 5.41 4.03 5.42 4.03 5.42C4.03 5.42 4.03 5.42 4.03 5.43C4.03 5.44 4.04 5.46 4.04 5.47C4.04 5.47 4.04 5.47 4.04 5.47C4.04 5.48 4.04 5.49 4.04 5.5C4.04 5.51 4.04 5.51 4.04 5.52C4.04 5.52 4.04 5.53 4.04 5.53C4.04 5.55 4.05 5.56 4.05 5.58C4.05 5.59 4.05 5.59 4.05 5.6C4.05 5.6 4.05 5.6 4.05 5.61C4.05 5.61 4.05 5.61 4.05 5.61C4.05 5.62 4.05 5.63 4.05 5.64C4.05 5.64 4.05 5.64 4.05 5.64C4.23 7.6 4.56 11.34 5.16 18.12C5.25 19.15 5.81 20.28 6.76 21.04C5.04 23.26 6.61 26.53 9.42 26.53C11.74 26.53 13.38 24.19 12.58 21.98L18.67 21.98C17.87 24.19 19.51 26.53 21.84 26.53C23.69 26.53 25.21 25.01 25.21 23.13C25.21 21.26 23.69 19.73 21.84 19.73L9.42 19.73C8.58 19.73 7.84 19.22 7.53 18.47L25.29 17.42C25.77 17.39 26.18 17.05 26.3 16.57L28.56 7.46C28.73 6.75 28.2 6.07 27.48 6.07ZM21.84 21.98C22.47 21.98 22.98 22.5 22.98 23.13C22.98 23.77 22.47 24.29 21.84 24.29C21.2 24.29 20.69 23.77 20.69 23.13C20.69 22.5 21.2 21.98 21.84 21.98ZM9.42 21.98C10.05 21.98 10.56 22.5 10.56 23.13C10.56 23.77 10.05 24.29 9.42 24.29C8.78 24.29 8.27 23.77 8.27 23.13C8.27 22.5 8.78 21.98 9.42 21.98ZM16.29 17.22L14.87 15.79L13.92 14.82C13.59 14.5 13.35 14.12 13.18 13.71C13.02 13.3 12.94 12.87 12.94 12.43C12.94 12.09 12.99 11.75 13.09 11.42C13.13 11.28 13.19 11.14 13.25 11.01C13.33 10.82 13.44 10.64 13.56 10.47L13.56 10.47L14.84 8.66L15.08 8.31L16.3 6.59L16.93 7.5C17.1 7.74 17.12 8.05 16.99 8.31C16.98 8.34 16.96 8.38 16.93 8.41L15.76 10.07L15.16 10.92L14.83 11.39C14.82 11.4 14.82 11.41 14.81 11.42C14.71 11.57 14.63 11.73 14.58 11.89C14.57 11.92 14.57 11.94 14.56 11.97C14.52 12.12 14.5 12.28 14.5 12.43C14.5 12.66 14.55 12.9 14.63 13.11C14.72 13.33 14.85 13.53 15.02 13.71L16.29 14.98L16.6 14.67L17.55 13.71C17.73 13.53 17.86 13.33 17.95 13.11C18.03 12.9 18.08 12.66 18.08 12.43C18.08 12.25 18.05 12.07 18 11.89C17.94 11.72 17.86 11.55 17.75 11.4L17.75 11.39L17.61 11.19L16.58 12.69L15.93 11.77C15.74 11.5 15.74 11.14 15.93 10.87L17.59 8.44L18.84 10.21L18.94 10.36L19.02 10.47L19.02 10.47C19.23 10.77 19.39 11.09 19.49 11.42C19.59 11.75 19.64 12.09 19.64 12.43C19.64 12.87 19.56 13.3 19.4 13.71C19.23 14.12 18.99 14.5 18.66 14.82L17.88 15.61L16.29 17.22Z" />
</svg>