<svg version="1.2" baseProfile="tiny-ps" xmlns="http://www.w3.org/2000/svg" viewBox="0 0 29 28" width="29" height="28">
	<title>Shape 3</title>
	<style>
		tspan { white-space:pre }
		.shp0 { fill: #cfb579 } 
	</style>
	<path id="Shape 3" class="shp0" d="M17.83 25.67C17.6 25.73 17.36 25.78 17.13 25.82C16.52 25.93 16.11 26.5 16.23 27.09C16.28 27.39 16.45 27.63 16.68 27.79C16.92 27.95 17.23 28.03 17.54 27.97C17.82 27.92 18.1 27.86 18.37 27.79C18.98 27.65 19.34 27.05 19.19 26.47C19.04 25.88 18.43 25.53 17.83 25.67L17.83 25.67ZM17.83 25.67M26.15 11.02C26.23 11.25 26.38 11.44 26.57 11.57C26.85 11.76 27.22 11.82 27.57 11.71C28.16 11.52 28.48 10.9 28.29 10.33C28.2 10.07 28.1 9.81 28 9.55C27.77 8.99 27.11 8.72 26.53 8.94C25.96 9.17 25.68 9.8 25.91 10.36C25.99 10.58 26.08 10.8 26.15 11.02L26.15 11.02ZM26.15 11.02M21.49 24.11C21.29 24.24 21.08 24.36 20.88 24.48C20.34 24.78 20.15 25.45 20.46 25.97C20.55 26.11 20.66 26.23 20.79 26.32C21.14 26.56 21.61 26.59 22 26.37C22.25 26.23 22.49 26.09 22.73 25.94C23.24 25.6 23.39 24.92 23.05 24.42C22.7 23.92 22 23.78 21.49 24.11L21.49 24.11ZM21.49 24.11M28.99 14.07C28.96 13.47 28.44 13 27.82 13.02C27.2 13.05 26.72 13.55 26.74 14.16C26.75 14.39 26.75 14.62 26.75 14.85C26.74 15.23 26.93 15.57 27.22 15.77C27.4 15.89 27.61 15.96 27.85 15.97C28.47 15.98 28.98 15.5 29 14.9C29 14.62 29 14.35 28.99 14.07L28.99 14.07ZM28.99 14.07M25.97 21.24C25.47 20.87 24.77 20.97 24.39 21.45C24.25 21.64 24.1 21.82 23.94 22C23.54 22.46 23.6 23.15 24.07 23.54C24.1 23.56 24.13 23.58 24.15 23.6C24.62 23.92 25.28 23.85 25.66 23.42C25.84 23.2 26.02 22.99 26.19 22.77C26.57 22.28 26.47 21.6 25.97 21.24L25.97 21.24ZM25.97 21.24M27.62 17.28C27.03 17.1 26.4 17.42 26.21 18C26.14 18.22 26.06 18.44 25.98 18.66C25.79 19.13 25.97 19.66 26.38 19.94C26.45 19.99 26.54 20.03 26.63 20.07C27.21 20.28 27.86 20 28.08 19.44C28.18 19.18 28.28 18.91 28.36 18.65C28.55 18.08 28.22 17.46 27.62 17.28L27.62 17.28ZM27.62 17.28M12.92 25.83C11.91 25.65 10.94 25.36 10.03 24.94C10.02 24.93 10.01 24.93 10 24.92C9.78 24.82 9.57 24.72 9.36 24.61C9.36 24.61 9.36 24.61 9.35 24.6C8.97 24.4 8.6 24.17 8.23 23.93C2.94 20.3 1.67 13.17 5.4 8.03C6.21 6.91 7.19 5.98 8.28 5.24C8.3 5.23 8.31 5.22 8.32 5.21C12.18 2.63 17.42 2.46 21.51 5.11L20.63 6.34C20.39 6.69 20.54 6.94 20.97 6.9L24.79 6.57C25.21 6.53 25.47 6.17 25.36 5.77L24.33 2.18C24.21 1.77 23.92 1.73 23.68 2.07L22.79 3.31C19.79 1.35 16.19 0.6 12.61 1.2C12.25 1.26 11.89 1.34 11.54 1.42C11.54 1.42 11.54 1.42 11.54 1.42C11.52 1.43 11.51 1.43 11.49 1.44C8.41 2.21 5.72 3.95 3.8 6.45C3.78 6.46 3.77 6.48 3.75 6.5C3.69 6.59 3.62 6.67 3.56 6.76C3.46 6.9 3.36 7.04 3.26 7.18C3.25 7.2 3.24 7.22 3.23 7.24C1.65 9.62 0.88 12.38 1.01 15.19C1.01 15.2 1.01 15.21 1.01 15.22C1.03 15.49 1.05 15.77 1.08 16.04C1.08 16.06 1.08 16.08 1.09 16.09C1.12 16.37 1.16 16.65 1.21 16.92C1.71 19.74 3.08 22.27 5.13 24.24C5.13 24.24 5.13 24.25 5.14 24.25C5.14 24.26 5.14 24.26 5.14 24.26C5.7 24.78 6.29 25.27 6.94 25.71C8.62 26.87 10.5 27.63 12.52 27.98C13.13 28.09 13.72 27.69 13.83 27.1C13.94 26.5 13.53 25.94 12.92 25.83L12.92 25.83ZM12.92 25.83M14.31 5.76C13.81 5.76 13.4 6.16 13.4 6.65L13.4 15.46L21.7 19.63C21.83 19.7 21.97 19.73 22.11 19.73C22.44 19.73 22.76 19.55 22.92 19.25C23.15 18.82 22.98 18.28 22.53 18.06L15.22 14.39L15.22 6.65C15.22 6.16 14.81 5.76 14.31 5.76L14.31 5.76ZM14.31 5.76" />
</svg>