<svg version="1.2" baseProfile="tiny-ps" xmlns="http://www.w3.org/2000/svg" viewBox="0 0 31 21" width="31" height="21">
	<title>Shape 47</title>
	<style>
		tspan { white-space:pre }
		.shp0 { fill: #ffffff } 
	</style>
	<path id="Shape 47" class="shp0" d="M29.39 9.96C29.14 9.62 23.16 1.64 15.52 1.64C7.88 1.64 1.9 9.62 1.65 9.96C1.41 10.28 1.41 10.72 1.65 11.04C1.9 11.38 7.88 19.36 15.52 19.36C23.16 19.36 29.14 11.38 29.39 11.04C29.63 10.72 29.63 10.28 29.39 9.96ZM14.95 6.65C14.95 7.78 14.01 8.71 12.87 8.71C11.72 8.71 10.79 7.78 10.79 6.65C10.79 5.51 11.72 4.59 12.87 4.59C14.01 4.59 14.95 5.51 14.95 6.65ZM15.52 17.53C9.89 17.53 5.02 12.23 3.58 10.5C4.68 9.16 7.82 5.72 11.78 4.21C10.34 5.31 9.42 7.04 9.42 8.97C9.42 12.3 12.15 15.01 15.52 15.01C18.88 15.01 21.62 12.3 21.62 8.97C21.62 7.04 20.7 5.32 19.27 4.21C23.22 5.73 26.35 9.17 27.46 10.5C26.02 12.23 21.16 17.53 15.52 17.53Z" />
</svg>