<svg version="1.2" baseProfile="tiny-ps" xmlns="http://www.w3.org/2000/svg" viewBox="0 0 25 23" width="25" height="23">
	<title>Shape 48</title>
	<style>
		tspan { white-space:pre }
		.shp0 { fill: #ffffff } 
	</style>
	<path id="Shape 48" class="shp0" d="M17.58 1.6C16.4 1.6 15.31 1.98 14.35 2.74C13.43 3.47 12.82 4.4 12.46 5.08C12.1 4.4 11.49 3.47 10.57 2.74C9.61 1.98 8.52 1.6 7.34 1.6C4.03 1.6 1.53 4.37 1.53 8.06C1.53 12.04 4.64 14.77 9.36 18.89C10.16 19.59 11.07 20.38 12.01 21.23C12.13 21.34 12.29 21.4 12.46 21.4C12.62 21.4 12.78 21.34 12.91 21.23C13.85 20.38 14.76 19.59 15.56 18.89C20.27 14.77 23.39 12.04 23.39 8.06C23.39 4.37 20.89 1.6 17.58 1.6ZM15.58 14.31C15.41 14.73 15.17 15.12 14.84 15.45L12.46 17.89L10.08 15.45C9.75 15.12 9.51 14.73 9.34 14.31C9.18 13.89 9.09 13.45 9.09 13.01C9.09 12.66 9.14 12.31 9.25 11.97C9.29 11.83 9.34 11.69 9.41 11.55C9.49 11.36 9.59 11.18 9.71 11L9.71 11L11 9.15L12.47 7.04L13.11 7.96C13.3 8.24 13.3 8.62 13.11 8.9L11.93 10.59L11.33 11.46L11 11.94C10.99 11.95 10.98 11.96 10.97 11.97C10.87 12.12 10.8 12.29 10.75 12.45C10.74 12.48 10.73 12.5 10.72 12.53C10.68 12.68 10.66 12.85 10.66 13.01C10.66 13.24 10.71 13.48 10.8 13.7C10.88 13.92 11.01 14.13 11.19 14.31L12.46 15.61L13.73 14.31C13.9 14.13 14.03 13.92 14.12 13.7C14.21 13.48 14.26 13.24 14.26 13.01C14.26 12.82 14.23 12.63 14.17 12.45C14.12 12.28 14.04 12.11 13.93 11.95L13.92 11.94L13.78 11.73L12.75 13.27L12.1 12.33C11.91 12.05 11.9 11.68 12.09 11.4L13.77 8.93L15.02 10.74L15.12 10.89L15.2 11L15.2 11C15.41 11.31 15.57 11.63 15.67 11.97C15.78 12.31 15.83 12.66 15.83 13.01C15.83 13.45 15.74 13.89 15.58 14.31Z" />
</svg>