<?xml version="1.0" encoding="utf-8"?>
<!-- Generator: Adobe Illustrator 23.0.1, SVG Export Plug-In . SVG Version: 6.00 Build 0)  -->
<svg version="1.1" id="Layer_1" xmlns="http://www.w3.org/2000/svg" xmlns:xlink="http://www.w3.org/1999/xlink" x="0px" y="0px"
	 viewBox="0 0 786.7 1037.3" style="enable-background:new 0 0 786.7 1037.3;" xml:space="preserve">
<style type="text/css">
	.st0{fill:none;stroke:#958A64;stroke-width:3;stroke-miterlimit:10;}
	.st1{fill:none;stroke:#0D3D40;stroke-width:3;stroke-miterlimit:10;}
</style>
<g>
	<path class="st0" d="M769.8,2.2v92.1c0,13.5,6.8,25.4,17,32.5V2.2H769.8z"/>
	<path class="st1" d="M751.8,356h-109c-26.8,0-48.5-21.7-48.5-48.5V194.2H698c29.7,0,53.8,24.1,53.8,53.8
		C751.8,248,751.8,356,751.8,356z"/>
	<path class="st1" d="M400.4,343h109c26.8,0,48.5-21.7,48.5-48.5V181.2H454.1c-29.7,0-53.8,24.1-53.8,53.8V343z"/>
	<path class="st1" d="M195.9,446.2h128.6c31.6,0,57.3-25.6,57.3-57.3V255.2H259.4c-35.1,0-63.5,28.5-63.5,63.5V446.2z"/>
	<path class="st1" d="M-0.1,653.7h132.5c32,0,58-26,58-58v-133H64.1c-35.5,0-64.3,28.8-64.3,64.3V653.7L-0.1,653.7z"/>
	<path class="st1" d="M367.9,656.7h132.5c32,0,58-26,58-58v-133H432.1c-35.5,0-64.3,28.8-64.3,64.3V656.7L367.9,656.7z"/>
	<path class="st1" d="M589.8,574.7h132.5c32,0,58-26,58-58v-133H654.2c-35.5,0-64.3,28.8-64.3,64.3V574.7z"/>
	<path class="st1" d="M766.8,653v126.7h20V606.4C774.5,618.1,766.8,634.7,766.8,653z"/>
	<path class="st1" d="M591,858.7h112.3c27.1,0,49.1-22,49.1-49.1V696.9H645.5c-30.1,0-54.5,24.4-54.5,54.5V858.7z"/>
	<path class="st1" d="M557.8,845.2h-112c-27.1,0-49-21.9-49-49V683.8h106.6c30,0,54.4,24.3,54.4,54.4V845.2z"/>
	<path class="st0" d="M482.6,446.2H426c-13.9,0-25.2-11.3-25.2-25.2v-58.9h53.9c15.5,0,28,12.5,28,28L482.6,446.2L482.6,446.2z"/>
	<path class="st0" d="M381.6,240.2h-74.2c-18.2,0-33-14.8-33-33v-77.1h70.5c20.2,0,36.6,16.4,36.6,36.6L381.6,240.2L381.6,240.2z"/>
	<path class="st0" d="M772.3,244.1v76.4c0,11.3,5.8,21.3,14.5,27.2V244.1H772.3z"/>
	<path class="st0" d="M674,164.1h54.8c13.5,0,24.4-10.9,24.4-24.4v-57h-52.1c-15,0-27.1,12.1-27.1,27.1V164.1L674,164.1z"/>
	<path class="st0" d="M769.5,177.1v52h17.4v-76.5C776.8,156.1,769.5,165.8,769.5,177.1z"/>
	<path class="st1" d="M658.8,165.7h-37.4c-9.2,0-16.6-7.4-16.6-16.6v-38.9h35.5c10.2,0,18.5,8.3,18.5,18.5V165.7L658.8,165.7z"/>
	<path class="st0" d="M274.9,115.2h-44.5c-10.9,0-19.8-8.9-19.8-19.8V49.2h42.3c12.1,0,22,9.8,22,22V115.2L274.9,115.2z"/>
	<path class="st0" d="M501.9,165.2h-47.1c-11.6,0-21-9.4-21-21v-49h44.8c12.9,0,23.3,10.4,23.3,23.3L501.9,165.2L501.9,165.2z"/>
	<path class="st0" d="M347.9,593.2h-87c-21.4,0-38.8-17.3-38.8-38.8V464h82.8c23.7,0,43,19.2,43,43V593.2L347.9,593.2z"/>
	<path class="st0" d="M381.9,795.2h-75.1c-18.5,0-33.4-15-33.4-33.4v-78.1h71.4c20.5,0,37.1,16.6,37.1,37.1V795.2z"/>
	<path class="st0" d="M381.9,1035.2H294c-21.6,0-39.1-17.5-39.1-39.1v-91.4h83.6c24,0,43.4,19.4,43.4,43.4V1035.2L381.9,1035.2z"/>
	<path class="st0" d="M172.9,448.2h-52.5c-12.9,0-23.4-10.5-23.4-23.4v-54.6h50c14.3,0,26,11.6,26,26L172.9,448.2L172.9,448.2z"/>
	<path class="st0" d="M271.9,671.2h-45.1c-11.1,0-20.1-9-20.1-20.1v-46.9h42.9c12.3,0,22.3,10,22.3,22.3L271.9,671.2L271.9,671.2z"
		/>
	<path class="st0" d="M749.8,675.2h-55.2c-13.6,0-24.6-11-24.6-24.6v-57.4h52.5c15.1,0,27.3,12.2,27.3,27.3V675.2L749.8,675.2z"/>
	<path class="st0" d="M714.8,942.2h-46c-11.3,0-20.5-9.2-20.5-20.5v-47.8H692c12.5,0,22.7,10.2,22.7,22.7L714.8,942.2L714.8,942.2z"
		/>
	<path class="st0" d="M766.8,798.2V878c0,13.8,8.2,25.7,20,31.1V798.2H766.8z"/>
	<path class="st1" d="M293.9,888.2h-37c-9.1,0-16.5-7.4-16.5-16.5v-38.5h35.2c10.1,0,18.3,8.2,18.3,18.3V888.2z"/>
	<path class="st1" d="M545.8,925.2h-34.3c-8.5,0-15.3-6.8-15.3-15.3v-35.7H529c9.4,0,17,7.6,17,17L545.8,925.2L545.8,925.2z"/>
	<path class="st1" d="M514.8,165.5h31.8c7.8,0,14.2-6.4,14.2-14.2v-33.1h-30.3c-8.7,0-15.7,7-15.7,15.7V165.5z"/>
	<path class="st1" d="M495.4,443.1H531c8.8,0,15.9-7.1,15.9-15.9v-37H513c-9.7,0-17.6,7.9-17.6,17.6V443.1z"/>
	<path class="st1" d="M296.4,664.1H332c8.8,0,15.9-7.1,15.9-15.9v-37H314c-9.7,0-17.6,7.9-17.6,17.6V664.1z"/>
	<path class="st1" d="M604.3,646.1H640c8.8,0,15.9-7.1,15.9-15.9v-37H622c-9.7,0-17.6,7.9-17.6,17.6V646.1z"/>
	<path class="st0" d="M165.6,969.2h44.4c10.9,0,19.8-8.9,19.8-19.8v-46.2h-42.3c-12.1,0-22,9.8-22,22L165.6,969.2L165.6,969.2z"/>
	<path class="st1" d="M304,888.2h53.9c13.3,0,24-10.7,24-24v-56h-51.3c-14.7,0-26.6,11.9-26.6,26.6V888.2L304,888.2z"/>
	<path class="st1" d="M589.7,918.7h32c7.9,0,14.2-6.4,14.2-14.2v-33.3h-30.4c-8.7,0-15.8,7.1-15.8,15.8V918.7z"/>
	<path class="st0" d="M399,954.2h53.9c13.3,0,24-10.7,24-24v-56h-51.3c-14.7,0-26.6,11.9-26.6,26.6V954.2L399,954.2z"/>
	<path class="st0" d="M165.6,969.2h45.1c11.1,0,20.1-9,20.1-20.1v-46.9h-42.9c-12.3,0-22.3,10-22.3,22.3L165.6,969.2L165.6,969.2z"
		/>
	<path class="st1" d="M164.4,778.2H229c15.9,0,28.8-12.9,28.8-28.8v-67.2h-61.5c-17.6,0-31.9,14.3-31.9,31.9V778.2L164.4,778.2z"/>
	<path class="st1" d="M204.4,183.2h36.4c8.9,0,16.2-7.3,16.2-16.2v-37.8h-34.6c-9.9,0-18,8-18,18V183.2L204.4,183.2z"/>
</g>
</svg>
