<?xml version="1.0" encoding="utf-8"?>
<!-- Generator: Adobe Illustrator 24.1.3, SVG Export Plug-In . SVG Version: 6.00 Build 0)  -->
<svg version="1.1" id="Layer_1" xmlns="http://www.w3.org/2000/svg" xmlns:xlink="http://www.w3.org/1999/xlink" x="0px" y="0px"
	 viewBox="0 0 1176 1080" style="enable-background:new 0 0 1176 1080;" xml:space="preserve">
<style type="text/css">
	.st0{fill:#0D3D40;}
	.st1{fill:none;stroke:#958A64;stroke-width:3;stroke-miterlimit:10;}
	.st2{fill:none;stroke:#FFFFFF;stroke-width:3;stroke-miterlimit:10;}
	.st3{fill:none;stroke:#0D3D40;stroke-width:3;stroke-miterlimit:10;}
</style>
<path class="st1" d="M262.5,161.5h88.56c21.78,0,39.44-17.66,39.44-39.44V30h-84.25c-24.16,0-43.75,19.59-43.75,43.75V161.5z"/>
<path class="st3" d="M408.5,383.81h108.97c26.8,0,48.53-21.73,48.53-48.53V222H462.33c-29.73,0-53.83,24.1-53.83,53.83V383.81z"/>
<path class="st3" d="M760,370.81H651.03c-26.8,0-48.53-21.73-48.53-48.53V209h103.67c29.73,0,53.83,24.1,53.83,53.83V370.81z"/>
<path class="st3" d="M964.42,474H835.79c-31.64,0-57.29-25.65-57.29-57.29V283h122.37c35.1,0,63.55,28.45,63.55,63.55V474z"/>
<path class="st3" d="M1160.5,681.5h-132.54c-32.03,0-57.99-25.96-57.99-57.99V490.5h126.2c35.53,0,64.33,28.8,64.33,64.33V681.5z"/>
<path class="st3" d="M792.5,684.5H659.96c-32.03,0-57.99-25.96-57.99-57.99V493.5h126.2c35.53,0,64.33,28.8,64.33,64.33V684.5z"/>
<path class="st3" d="M570.5,602.5H437.96c-32.03,0-57.99-25.96-57.99-57.99V411.5h126.2c35.53,0,64.33,28.8,64.33,64.33V602.5z"/>
<path class="st3" d="M393.5,807.5H260.96c-32.03,0-57.99-25.96-57.99-57.99V616.5h126.2c35.53,0,64.33,28.8,64.33,64.33V807.5z"/>
<path class="st3" d="M569.37,886.5H457.09c-27.13,0-49.13-21.99-49.13-49.13V724.7h106.91c30.1,0,54.5,24.4,54.5,54.5V886.5z"/>
<path class="st3" d="M200.5,602.5H67.96c-32.03,0-57.99-25.96-57.99-57.99V411.5h126.2c35.53,0,64.33,28.8,64.33,64.33V602.5z"/>
<path class="st3" d="M602.5,873H714.5c27.06,0,49-21.94,49-49V711.61H656.86c-30.02,0-54.36,24.34-54.36,54.36V873z"/>
<path class="st1" d="M677.74,474h56.64c13.93,0,25.22-11.29,25.22-25.22V389.9h-53.88c-15.45,0-27.98,12.53-27.98,27.98V474z"/>
<path class="st1" d="M778.82,268h74.15c18.24,0,33.02-14.78,33.02-33.02V157.9h-70.54c-20.23,0-36.63,16.4-36.63,36.63V268z"/>
<path class="st1" d="M281.74,381.07h73.52c18.08,0,32.74-14.66,32.74-32.74V271.9h-69.94c-20.06,0-36.32,16.26-36.32,36.32V381.07z"
	/>
<path class="st1" d="M231.5,601.3h87.15c21.43,0,38.81-17.38,38.81-38.81V471.9h-82.9c-23.78,0-43.05,19.27-43.05,43.05V601.3z"/>
<path class="st1" d="M486.28,191.9h-54.82c-13.48,0-24.41-10.93-24.41-24.41V110.5h52.15c14.96,0,27.08,12.12,27.08,27.08V191.9z"/>
<path class="st1" d="M390.87,256.9h-52.46c-12.9,0-23.36-10.46-23.36-23.36V179h49.91c14.31,0,25.92,11.6,25.92,25.92V256.9z"/>
<path class="st3" d="M501.5,193.49h37.36c9.19,0,16.64-7.45,16.64-16.64v-38.84h-35.54c-10.19,0-18.46,8.26-18.46,18.46V193.49z"/>
<path class="st1" d="M885.5,143h44.45c10.93,0,19.79-8.86,19.79-19.79V77h-42.29c-12.13,0-21.96,9.83-21.96,21.96V143z"/>
<path class="st1" d="M658.55,193h47.14c11.6,0,20.99-9.4,20.99-20.99V123h-44.85c-12.86,0-23.29,10.43-23.29,23.29V193z"/>
<path class="st1" d="M812.5,621h87.01c21.4,0,38.75-17.35,38.75-38.75v-90.44h-82.77c-23.74,0-42.98,19.24-42.98,42.98V621z"/>
<path class="st1" d="M778.5,823h75.09c18.47,0,33.44-14.97,33.44-33.44V711.5H815.6c-20.49,0-37.1,16.61-37.1,37.1V823z"/>
<path class="st1" d="M778.5,1063h87.89c21.62,0,39.14-17.52,39.14-39.14V932.5h-83.61c-23.98,0-43.42,19.44-43.42,43.42V1063z"/>
<path class="st1" d="M987.5,476h52.53c12.92,0,23.39-10.47,23.39-23.39V398h-49.97c-14.33,0-25.95,11.62-25.95,25.95V476z"/>
<path class="st1" d="M888.5,699h45.12c11.1,0,20.09-9,20.09-20.09V632h-42.93c-12.31,0-22.29,9.98-22.29,22.29V699z"/>
<path class="st1" d="M410.5,703h55.22c13.58,0,24.59-11.01,24.59-24.59V621h-52.54c-15.07,0-27.28,12.21-27.28,27.28V703z"/>
<path class="st1" d="M105.5,694h52.19c12.84,0,23.24-10.41,23.24-23.24V616.5h-49.65c-14.24,0-25.78,11.54-25.78,25.78V694z"/>
<path class="st1" d="M219.5,1020h43.93c10.81,0,19.57-8.76,19.57-19.57v-45.67h-41.8c-11.99,0-21.7,9.72-21.7,21.7V1020z"/>
<path class="st1" d="M445.5,970h45.95c11.3,0,20.47-9.16,20.47-20.47v-47.77H468.2c-12.54,0-22.7,10.16-22.7,22.7V970z"/>
<path class="st1" d="M282.5,940.01h76.78c18.89,0,34.19-15.31,34.19-34.19V826h-73.05c-20.95,0-37.93,16.98-37.93,37.93V940.01z"/>
<path class="st3" d="M866.5,916h37.04c9.11,0,16.5-7.39,16.5-16.5V861H884.8c-10.11,0-18.3,8.19-18.3,18.3V916z"/>
<path class="st3" d="M614.5,953h34.35c8.45,0,15.3-6.85,15.3-15.3V902h-32.67c-9.37,0-16.97,7.6-16.97,16.97V953z"/>
<path class="st3" d="M252.5,231.49h37.36c9.19,0,16.64-7.45,16.64-16.64v-38.84h-35.54c-10.19,0-18.46,8.26-18.46,18.46V231.49z"/>
<path class="st1" d="M216.5,462.25h43.93c10.81,0,19.57-8.76,19.57-19.57v-45.67h-41.8c-11.99,0-21.7,9.72-21.7,21.7V462.25z"/>
<path class="st3" d="M645.5,193.27h-31.83c-7.83,0-14.17-6.35-14.17-14.17v-33.08h30.28c8.68,0,15.72,7.04,15.72,15.72V193.27z"/>
<path class="st3" d="M665,470.92h-35.63c-8.76,0-15.87-7.1-15.87-15.87v-37.04h33.9c9.72,0,17.6,7.88,17.6,17.6V470.92z"/>
<path class="st3" d="M864,691.92h-35.63c-8.76,0-15.87-7.1-15.87-15.87v-37.04h33.9c9.72,0,17.6,7.88,17.6,17.6V691.92z"/>
<path class="st3" d="M556,673.92h-35.63c-8.76,0-15.87-7.1-15.87-15.87v-37.04h33.9c9.72,0,17.6,7.88,17.6,17.6V673.92z"/>
<path class="st1" d="M994.73,997h-44.44c-10.93,0-19.79-8.86-19.79-19.79v-46.2h42.28c12.13,0,21.95,9.83,21.95,21.95V997z"/>
<path class="st3" d="M856.36,916h-53.87c-13.25,0-23.99-10.74-23.99-23.99v-56h51.25c14.7,0,26.61,11.91,26.61,26.61V916z"/>
<path class="st3" d="M570.72,946.5h-31.98c-7.87,0-14.24-6.38-14.24-14.24v-33.25h30.42c8.73,0,15.8,7.07,15.8,15.8V946.5z"/>
<path class="st3" d="M270,938.95h-36.32c-8.93,0-16.18-7.24-16.18-16.18v-37.76h34.56c9.91,0,17.94,8.03,17.94,17.94V938.95z"/>
<path class="st1" d="M761.36,982h-53.87c-13.25,0-23.99-10.74-23.99-23.99v-56h51.25c14.7,0,26.61,11.91,26.61,26.61V982z"/>
<path class="st1" d="M994.71,997h-45.11c-11.1,0-20.09-9-20.09-20.09v-46.9h42.92c12.31,0,22.29,9.98,22.29,22.29V997z"/>
<path class="st3" d="M995.93,806h-64.64c-15.9,0-28.79-12.89-28.79-28.79v-67.2H964c17.64,0,31.94,14.3,31.94,31.94V806z"/>
<path class="st3" d="M359,454.92h-35.63c-8.76,0-15.87-7.1-15.87-15.87v-37.04h33.9c9.72,0,17.6,7.88,17.6,17.6V454.92z"/>
<path class="st3" d="M956.05,211h-36.36c-8.94,0-16.19-7.25-16.19-16.19v-37.8h34.59c9.92,0,17.96,8.04,17.96,17.96V211z"/>
<path class="st1" d="M241,161.03h-44.97c-11.06,0-20.03-8.97-20.03-20.03V94.25h42.78c12.27,0,22.22,9.95,22.22,22.22V161.03z"/>
<path class="st3" d="M265,383.71h-62.27c-15.32,0-27.73-12.42-27.73-27.73v-64.73h59.24c16.99,0,30.76,13.77,30.76,30.76V383.71z"/>
</svg>
