<?xml version="1.0" encoding="utf-8"?>
<!-- Generator: Adobe Illustrator 23.0.1, SVG Export Plug-In . SVG Version: 6.00 Build 0)  -->
<svg version="1.1" id="Layer_1" xmlns="http://www.w3.org/2000/svg" xmlns:xlink="http://www.w3.org/1999/xlink" x="0px" y="0px"
	 viewBox="0 0 787.2 1036.4" style="enable-background:new 0 0 787.2 1036.4;" xml:space="preserve">
<style type="text/css">
	.st0{fill:none;stroke:#958A64;stroke-width:3;stroke-miterlimit:10;}
	.st1{fill:none;stroke:#0D3D40;stroke-width:3;stroke-miterlimit:10;}
</style>
<path class="st0" d="M15.5,1.6v92.1c0,13.5-6.8,25.4-17,32.5V1.6H15.5z"/>
<path class="st1" d="M33.5,355.4h109c26.8,0,48.5-21.7,48.5-48.5V193.6H87.3c-29.7,0-53.8,24.1-53.8,53.8V355.4z"/>
<path class="st1" d="M385,342.4H276c-26.8,0-48.5-21.7-48.5-48.5V180.6h103.7c29.7,0,53.8,24.1,53.8,53.8V342.4z"/>
<path class="st1" d="M589.4,445.6H460.8c-31.6,0-57.3-25.6-57.3-57.3V254.6h122.4c35.1,0,63.5,28.5,63.5,63.5V445.6z"/>
<path class="st1" d="M785.5,653.1H653c-32,0-58-26-58-58v-133h126.2c35.5,0,64.3,28.8,64.3,64.3V653.1L785.5,653.1z"/>
<path class="st1" d="M417.5,656.1H285c-32,0-58-26-58-58v-133h126.2c35.5,0,64.3,28.8,64.3,64.3V656.1L417.5,656.1z"/>
<path class="st1" d="M195.5,574.1H63c-32,0-58-26-58-58v-133h126.2c35.5,0,64.3,28.8,64.3,64.3V574.1z"/>
<path class="st1" d="M18.5,652.4v126.7h-20V605.8C10.8,617.5,18.5,634.1,18.5,652.4z"/>
<path class="st1" d="M194.4,858.1H82.1C55,858.1,33,836.1,33,809V696.3h106.9c30.1,0,54.5,24.4,54.5,54.5V858.1z"/>
<path class="st1" d="M227.5,844.6h112c27.1,0,49-21.9,49-49V683.2H281.9c-30,0-54.4,24.3-54.4,54.4V844.6z"/>
<path class="st0" d="M302.7,445.6h56.6c13.9,0,25.2-11.3,25.2-25.2v-58.9h-53.9c-15.5,0-28,12.5-28,28v56.1H302.7z"/>
<path class="st0" d="M403.8,239.6H478c18.2,0,33-14.8,33-33v-77.1h-70.5c-20.2,0-36.6,16.4-36.6,36.6L403.8,239.6L403.8,239.6z"/>
<path class="st0" d="M13,243.5v76.4c0,11.3-5.8,21.3-14.5,27.2V243.5H13z"/>
<path class="st0" d="M111.3,163.5H56.5c-13.5,0-24.4-10.9-24.4-24.4v-57h52.1c15,0,27.1,12.1,27.1,27.1L111.3,163.5L111.3,163.5z"/>
<path class="st0" d="M15.9,176.5v52H-1.5V152C8.6,155.5,15.9,165.2,15.9,176.5z"/>
<path class="st1" d="M126.5,165.1h37.4c9.2,0,16.6-7.4,16.6-16.6v-38.9H145c-10.2,0-18.5,8.3-18.5,18.5V165.1L126.5,165.1z"/>
<path class="st0" d="M510.5,114.6H555c10.9,0,19.8-8.9,19.8-19.8V48.6h-42.3c-12.1,0-22,9.8-22,22V114.6L510.5,114.6z"/>
<path class="st0" d="M283.5,164.6h47.1c11.6,0,21-9.4,21-21v-49h-44.8c-12.9,0-23.3,10.4-23.3,23.3V164.6L283.5,164.6z"/>
<path class="st0" d="M437.5,592.6h87c21.4,0,38.8-17.3,38.8-38.8v-90.4h-82.8c-23.7,0-43,19.2-43,43V592.6L437.5,592.6z"/>
<path class="st0" d="M403.5,794.6h75.1c18.5,0,33.4-15,33.4-33.4v-78.1h-71.4c-20.5,0-37.1,16.6-37.1,37.1V794.6z"/>
<path class="st0" d="M403.5,1034.6h87.9c21.6,0,39.1-17.5,39.1-39.1v-91.4h-83.6c-24,0-43.4,19.4-43.4,43.4V1034.6L403.5,1034.6z"/>
<path class="st0" d="M612.5,447.6H665c12.9,0,23.4-10.5,23.4-23.4v-54.6h-50c-14.3,0-26,11.6-26,26L612.5,447.6L612.5,447.6z"/>
<path class="st0" d="M513.5,670.6h45.1c11.1,0,20.1-9,20.1-20.1v-46.9h-42.9c-12.3,0-22.3,10-22.3,22.3L513.5,670.6L513.5,670.6z"/>
<path class="st0" d="M35.5,674.6h55.2c13.6,0,24.6-11,24.6-24.6v-57.4H62.8c-15.1,0-27.3,12.2-27.3,27.3L35.5,674.6L35.5,674.6z"/>
<path class="st0" d="M70.5,941.6h46c11.3,0,20.5-9.2,20.5-20.5v-47.8H93.3c-12.5,0-22.7,10.2-22.7,22.7L70.5,941.6L70.5,941.6z"/>
<path class="st0" d="M18.5,797.6v79.8c0,13.8-8.2,25.7-20,31.1V797.6H18.5z"/>
<path class="st1" d="M491.5,887.6h37c9.1,0,16.5-7.4,16.5-16.5v-38.5h-35.2c-10.1,0-18.3,8.2-18.3,18.3V887.6z"/>
<path class="st1" d="M239.5,924.6h34.3c8.5,0,15.3-6.8,15.3-15.3v-35.7h-32.7c-9.4,0-17,7.6-17,17L239.5,924.6L239.5,924.6z"/>
<path class="st1" d="M270.5,164.9h-31.8c-7.8,0-14.2-6.4-14.2-14.2v-33.1h30.3c8.7,0,15.7,7,15.7,15.7V164.9z"/>
<path class="st1" d="M290,442.5h-35.6c-8.8,0-15.9-7.1-15.9-15.9v-37h33.9c9.7,0,17.6,7.9,17.6,17.6V442.5z"/>
<path class="st1" d="M489,663.5h-35.6c-8.8,0-15.9-7.1-15.9-15.9v-37h33.9c9.7,0,17.6,7.9,17.6,17.6V663.5z"/>
<path class="st1" d="M181,645.5h-35.6c-8.8,0-15.9-7.1-15.9-15.9v-37h33.9c9.7,0,17.6,7.9,17.6,17.6V645.5z"/>
<path class="st0" d="M619.7,968.6h-44.4c-10.9,0-19.8-8.9-19.8-19.8v-46.2h42.3c12.1,0,22,9.8,22,22L619.7,968.6L619.7,968.6z"/>
<path class="st1" d="M481.4,887.6h-53.9c-13.3,0-24-10.7-24-24v-56h51.3c14.7,0,26.6,11.9,26.6,26.6L481.4,887.6L481.4,887.6z"/>
<path class="st1" d="M195.7,918.1h-32c-7.9,0-14.2-6.4-14.2-14.2v-33.3h30.4c8.7,0,15.8,7.1,15.8,15.8V918.1z"/>
<path class="st0" d="M386.4,953.6h-53.9c-13.3,0-24-10.7-24-24v-56h51.3c14.7,0,26.6,11.9,26.6,26.6L386.4,953.6L386.4,953.6z"/>
<path class="st0" d="M619.7,968.6h-45.1c-11.1,0-20.1-9-20.1-20.1v-46.9h42.9c12.3,0,22.3,10,22.3,22.3L619.7,968.6L619.7,968.6z"/>
<path class="st1" d="M620.9,777.6h-64.6c-15.9,0-28.8-12.9-28.8-28.8v-67.2H589c17.6,0,31.9,14.3,31.9,31.9V777.6L620.9,777.6z"/>
<path class="st1" d="M581,182.6h-36.4c-8.9,0-16.2-7.3-16.2-16.2v-37.8H563c9.9,0,18,8,18,18L581,182.6L581,182.6z"/>
</svg>
